<?xml version="1.0" standalone="no"?>
<!DOCTYPE svg PUBLIC "-//W3C//DTD SVG 20010904//EN"
 "http://www.w3.org/TR/2001/REC-SVG-20010904/DTD/svg10.dtd">
<svg version="1.0" xmlns="http://www.w3.org/2000/svg"
 width="512.000000pt" height="512.000000pt" viewBox="0 0 512.000000 512.000000"
 preserveAspectRatio="xMidYMid meet">
<metadata>
Created by potrace 1.14, written by Peter Selinger 2001-2017
</metadata>
<g transform="translate(0.000000,512.000000) scale(0.100000,-0.100000)"
fill="#000000" stroke="none">
<path d="M1542 5080 c-39 -24 -59 -67 -68 -143 -9 -75 -1 -102 37 -117 46 -20
80 10 97 85 7 32 21 69 32 83 27 33 25 58 -5 87 -29 30 -50 31 -93 5z"/>
<path d="M1709 4989 c-48 -52 -89 -136 -89 -183 0 -89 116 -93 135 -5 4 17 22
50 42 75 55 73 60 90 36 122 -13 18 -31 28 -52 30 -28 3 -39 -3 -72 -39z"/>
<path d="M2410 4899 c-103 -8 -217 -43 -344 -105 -37 -19 -70 -34 -72 -34 -2
0 -1 13 2 29 5 23 1 35 -19 55 -15 14 -35 26 -45 26 -43 0 -63 -32 -98 -159
l-35 -124 -163 -171 c-214 -224 -256 -273 -256 -297 0 -10 19 -41 43 -67 50
-56 636 -672 749 -787 l78 -80 41 -526 42 -525 -333 -980 c-183 -538 -339
-998 -346 -1022 -16 -53 -4 -85 38 -103 65 -27 52 -58 392 943 172 505 314
920 317 922 3 3 121 -347 262 -777 l256 -782 7 -144 c5 -122 9 -146 25 -162
23 -23 67 -25 95 -5 18 13 19 26 16 173 l-3 158 -294 895 -294 895 -21 267
c-12 147 -20 275 -18 284 2 10 46 -101 99 -247 l97 -264 7 -125 c7 -144 18
-170 68 -170 69 0 78 24 68 196 l-8 139 -181 492 c-100 271 -186 502 -192 514
-7 11 -39 49 -72 82 -136 139 -763 799 -765 805 -2 4 47 59 107 122 l109 115
1 -146 c0 -165 9 -202 78 -326 52 -94 75 -126 141 -198 94 -104 193 -187 261
-219 58 -27 77 -31 175 -34 192 -6 370 46 533 157 199 135 260 285 249 621 -3
116 -8 158 -26 209 -42 122 -132 235 -272 342 -115 87 -193 127 -264 134 -116
11 -141 11 -235 4z m190 -138 c83 -9 127 -32 251 -131 111 -88 178 -179 204
-276 33 -119 15 -417 -30 -503 -39 -76 -132 -152 -267 -216 -104 -50 -197 -68
-326 -63 -97 3 -111 6 -152 32 -25 16 -90 75 -145 130 -100 101 -175 209 -212
308 -18 49 -21 161 -9 352 l8 120 62 57 c115 109 330 193 506 197 19 1 69 -3
110 -7z"/>
</g>
</svg>
